VIDEO INFO:

Format                           : Matroska
File size                        : 2.05 GiB
Duration                         : 1h 46mn
Overall bit rate                 : 2 766 Kbps
Encoded date                     : UTC 2007-09-17 00:48:28
Writing application              : mkvmerge v2.0.2 ('You're My Flame') built on Mar 16 2007 08:33:36
Writing library                  : libebml v0.7.7 + libmatroska v0.8.1

Video
ID                               : 1
Format                           : AVC
Format/Info                      : Advanced Video Codec
Format profile                   : High@L5.1
Format settings, CABAC           : Yes
Format settings, ReFrames        : 8 frames
Codec ID                         : V_MPEG4/ISO/AVC
Duration                         : 1h 46mn
Bit rate                         : 2 379 Kbps
Width                            : 852 pixels
Height                           : 720 pixels
Display aspect ratio             : 16:9
Original display aspect ratio    : 1.183
Frame rate                       : 25.000 fps
Color space                      : YUV
Chroma subsampling               : 4:2:0
Bit depth                        : 8 bits
Scan type                        : Progressive
Bits/(Pixel*Frame)               : 0.155
Stream size                      : 1.72 GiB (84%)
Writing library                  : x264 core 56 svn-667C
Encoding settings                : cabac=1 / ref=5 / deblock=1:-2:-1 / analyse=0x3:0x113 / me=umh / subme=6 / brdo=1 / mixed_ref=1 / me_range=16 / chroma_me=1 / trellis=1 / 8x8dct=1 / cqm=0 / deadzone=21,11 / chroma_qp_offset=0 / threads=3 / nr=0 / decimate=1 / mbaff=0 / bframes=3 / b_pyramid=1 / b_adapt=1 / b_bias=0 / direct=3 / wpredb=1 / bime=1 / keyint=250 / keyint_min=25 / scenecut=40(pre) / rc=2pass / bitrate=2379 / ratetol=1.0 / rceq='blurCplx^(1-qComp)' / qcomp=0.60 / qpmin=10 / qpmax=51 / qpstep=4 / cplxblur=20.0 / qblur=0.5 / ip_ratio=1.40 / pb_ratio=1.30
Language                         : English

Audio
ID                               : 2
Format                           : AC-3
Format/Info                      : Audio Coding 3
Mode extension                   : CM (complete main)
Codec ID                         : A_AC3
Duration                         : 1h 46mn
Bit rate mode                    : Constant
Bit rate                         : 384 Kbps
Channel(s)                       : 2 channels
Channel positions                : Front: L R
Sampling rate                    : 48.0 KHz
Bit depth                        : 16 bits
Compression mode                 : Lossy
Stream size                      : 291 MiB (14%)
Language                         : English

Accused, The (1988) 

Verenigde Staten / Canada
Drama
111 minuten

geregisseerd door Jonathan Kaplan
met Jodie Foster, Kelly McGillis en Bernie Coulson

Tijdens een avondje flink doorzakken wordt Sarah Tobias in een volle bar op gruwelijke wijze verkracht. De daders krijgen hun straf, maar nu klaagt zij met behulp van advocate Katherine Murphy de aanmoedigers van deze verkrachting aan.
---------
Ondertiteling:

Nederlands (.srt, apart bijgevoegd)